<svg xmlns="http://www.w3.org/2000/svg" xmlns:xlink="http://www.w3.org/1999/xlink" width="192" zoomAndPan="magnify" viewBox="0 0 144 143.999998" height="192" preserveAspectRatio="xMidYMid meet" version="1.0"><defs><clipPath id="a8a632a39d"><path d="M 40 0.238281 L 144 0.238281 L 144 58 L 40 58 Z M 40 0.238281 " clip-rule="nonzero"/></clipPath><clipPath id="62b72fdc19"><rect x="0" width="144" y="0" height="144"/></clipPath></defs><g transform="matrix(1, 0, 0, 1, 0, -0.00000000000000891)"><g clip-path="url(#62b72fdc19)"><g clip-path="url(#a8a632a39d)"><path fill="#075a8a" d="M 40.402344 57.734375 L 51.378906 30.457031 L 78.292969 6.378906 L 144 0.257812 L 104.195312 38.417969 Z M 40.402344 57.734375 " fill-opacity="1" fill-rule="nonzero"/></g><path fill="#60c1e7" d="M 29.230469 83.078125 L 20.683594 82.644531 L 11.644531 79.722656 L 2.984375 70.21875 L 17.640625 72.402344 Z M 29.230469 83.078125 " fill-opacity="1" fill-rule="nonzero"/><path fill="#075a8a" d="M 8.199219 53.023438 C 12.375 44.824219 10.890625 45.855469 23.914062 42.039062 C 25.992188 41.429688 27.742188 39.980469 28.71875 38.058594 L 16.199219 41.84375 C 29.253906 30.15625 28.152344 30.210938 44.320312 31.105469 L 34.34375 55.984375 C 18.554688 49.238281 20.765625 49.21875 8.199219 53.023438 Z M 8.199219 53.023438 " fill-opacity="1" fill-rule="nonzero"/><path fill="#0081be" d="M 48.414062 61.929688 L 74.707031 53.949219 L 105.152344 52.980469 L 141.625 70.199219 L 104.542969 85.949219 Z M 48.414062 61.929688 " fill-opacity="1" fill-rule="nonzero"/><path fill="#60c1e7" d="M 37.078125 89.804688 L 28.070312 96.574219 L 16.46875 101.210938 L 0 99.6875 L 12.085938 88.425781 Z M 37.078125 89.804688 " fill-opacity="1" fill-rule="nonzero"/><path fill="#00a1df" d="M 48.015625 89.425781 L 44.875 103.125 L 37.5625 116.898438 L 20.652344 128.714844 L 23.082031 108.246094 Z M 48.015625 89.425781 " fill-opacity="1" fill-rule="nonzero"/><path fill="#00a1df" d="M 63.679688 99.800781 L 67.648438 118.882812 L 60.820312 143.773438 L 46.800781 122.132812 L 55.75 84.105469 Z M 63.679688 99.800781 " fill-opacity="1" fill-rule="nonzero"/><path fill="#0081be" d="M 77.339844 81.183594 L 96.675781 96.378906 L 110.3125 125.9375 L 79.210938 116.445312 L 56.941406 72.484375 Z M 77.339844 81.183594 " fill-opacity="1" fill-rule="nonzero"/></g></g></svg>